<?xml version="1.0" encoding="UTF-8"?>
<svg version="1.1" xmlns="http://www.w3.org/2000/svg" width="574" height="172">
<path d="M0 0 C189.42 0 378.84 0 574 0 C574 56.76 574 113.52 574 172 C384.58 172 195.16 172 0 172 C0 115.24 0 58.48 0 0 Z " fill="#F9F9F9" transform="translate(0,0)"/>
<path d="M0 0 C10.12652662 5.94383084 15.20652325 12.46220824 18.78515625 23.5234375 C19.5625 27.5625 19.5625 27.5625 19.5625 38.5625 C2.4025 38.5625 -14.7575 38.5625 -32.4375 38.5625 C-29.34477542 48.80443779 -29.34477542 48.80443779 -22.4375 54.5625 C-15.74397648 56.71052514 -7.86825017 56.21045595 -1.4375 53.5625 C-0.550625 52.675625 0.33625 51.78875 1.25 50.875 C2.013125 50.111875 2.77625 49.34875 3.5625 48.5625 C6.79468649 48.89848612 9.12490651 50.37806423 11.8125 52.125 C12.51890625 52.58003906 13.2253125 53.03507812 13.953125 53.50390625 C14.48421875 53.85324219 15.0153125 54.20257813 15.5625 54.5625 C14.99908854 58.18102995 13.74871523 59.69570019 11 62.0625 C10.35933594 62.6296875 9.71867187 63.196875 9.05859375 63.78125 C2.11398715 68.7370256 -3.34858544 70.19056875 -11.875 70 C-13.21014648 70.01063477 -13.21014648 70.01063477 -14.57226562 70.02148438 C-24.74871696 69.92484897 -31.73201369 67.27409914 -39.1328125 60.2421875 C-47.45136868 50.57010353 -49.33384154 39.91012556 -48.65966797 27.6015625 C-47.71317722 18.91464959 -42.8489514 11.28427336 -36.4375 5.5625 C-25.60476094 -2.77610326 -12.86127548 -5.96776407 0 0 Z " fill="#050505" transform="translate(264.4375,54.4375)"/>
<path d="M0 0 C8.02929996 5.44004688 13.11152119 12.81119066 15.5859375 22.23046875 C16.30263524 27.08270612 16 32.13670147 16 37 C-9.245 37.495 -9.245 37.495 -35 38 C-33.3969384 45.65121625 -33.3969384 45.65121625 -29 51 C-23.24342902 54.40695017 -17.60720374 54.89107195 -11 54 C-8.72025473 53.16895985 -6.7420063 52.20555033 -4.65625 50.97265625 C-3 50 -3 50 0 49 C0 48.34 0 47.68 0 47 C5.15464734 47.48324819 8.81550319 50.18610761 13 53 C9.36536066 60.26927868 2.60710746 65.35544887 -5 68 C-8.8499212 68.55179742 -12.61649823 68.56044361 -16.5 68.5 C-17.49386719 68.51546875 -18.48773438 68.5309375 -19.51171875 68.546875 C-28.48205081 68.49947562 -34.72641938 65.76269796 -41.33203125 59.76171875 C-49.04529965 51.6149177 -51.39437552 43.03615921 -51.3125 32.0625 C-51.30404053 30.87454834 -51.30404053 30.87454834 -51.29541016 29.66259766 C-51.07251056 18.95238244 -47.7300922 12.08120079 -40.40625 4.30859375 C-29.66388278 -5.80037917 -12.69776374 -7.67974714 0 0 Z " fill="#060606" transform="translate(416,56)"/>
<path d="M0 0 C6.27 0 12.54 0 19 0 C23.14162002 10.75349565 27.2699081 21.50237499 31.00830078 32.40405273 C32.49228865 36.69915003 34.16938522 40.84488023 36 45 C37.75438273 42.36842591 38.61980821 40.4982237 39.625 37.5625 C41.60269179 31.97886641 43.78335747 26.49171405 46 21 C48.80352547 14.04418058 51.50351449 7.07337562 54 0 C59.94 0 65.88 0 72 0 C69.04449284 8.59159059 66.14739439 16.96706076 62.26171875 25.1796875 C60.79274452 28.46327696 59.54538275 31.81062061 58.3125 35.1875 C55.34274165 43.29478148 52.02234325 51.24318748 48.68188477 59.20361328 C45.36745904 67.10333925 42.15233312 75.03433104 39 83 C37.89806089 85.77172433 36.79309185 88.54223108 35.6875 91.3125 C35.43258789 91.95388916 35.17767578 92.59527832 34.91503906 93.25610352 C34.00370106 95.54097584 33.10067501 97.79864998 32 100 C26.39 100 20.78 100 15 100 C15.8089601 95.14623938 16.61230487 92.58417293 18.8203125 88.41796875 C20.79039463 84.37995273 22.28609018 80.16095505 23.8515625 75.953125 C25 73 25 73 26.15234375 70.76953125 C27.54879442 67.85436003 26.84736803 66.10701613 26 63 C24.83845339 60.247828 23.59191453 57.54681261 22.3203125 54.84375 C20.36492688 50.6321502 18.69314436 46.32213577 17 42 C12.90481156 31.62552263 8.654342 21.32163607 4.33935547 11.03662109 C3.71311279 9.54122803 3.71311279 9.54122803 3.07421875 8.015625 C2.69869873 7.12133789 2.32317871 6.22705078 1.9362793 5.30566406 C1.22795168 3.5613496 0.59534536 1.78603608 0 0 Z " fill="#040404" transform="translate(113,54)"/>
<path d="M0 0 C6.32873626 4.33970486 8.93005068 9.15916571 11.05078125 16.40625 C11.54601062 20.46545181 11.52065959 24.45473193 11.44140625 28.5390625 C11.43574646 29.65691132 11.43008667 30.77476013 11.42425537 31.92648315 C11.40204345 35.46185961 11.35187436 38.99618504 11.30078125 42.53125 C11.28069668 44.94269359 11.26244936 47.35415323 11.24609375 49.765625 C11.20222826 55.64623213 11.13330573 61.52606349 11.05078125 67.40625 C5.77078125 67.40625 0.49078125 67.40625 -4.94921875 67.40625 C-4.96380127 66.11001709 -4.97838379 64.81378418 -4.9934082 63.47827148 C-5.05156974 58.64922092 -5.12880166 53.82062793 -5.21166992 48.99194336 C-5.24483536 46.90575613 -5.27289318 44.81948098 -5.2956543 42.7331543 C-5.32935444 39.72667121 -5.38167843 36.72098775 -5.4375 33.71484375 C-5.44388992 32.78852646 -5.45027985 31.86220917 -5.4568634 30.90782166 C-5.60738116 24.21324681 -6.61817127 19.33885813 -10.88671875 13.96875 C-15.79594375 11.46404337 -20.5669599 11.439292 -25.94921875 12.40625 C-29.49058533 14.37835227 -32.12964396 16.76710042 -33.94921875 20.40625 C-34.06727052 21.9170257 -34.12618324 23.43263831 -34.15454102 24.94775391 C-34.17448624 25.88857819 -34.19443146 26.82940247 -34.21498108 27.79873657 C-34.24004982 29.32535416 -34.24004982 29.32535416 -34.265625 30.8828125 C-34.2864061 31.92319672 -34.30718719 32.96358093 -34.32859802 34.03549194 C-34.39411747 37.36734249 -34.45298967 40.6992735 -34.51171875 44.03125 C-34.55490169 46.28646674 -34.5985159 48.54167527 -34.64257812 50.796875 C-34.74980133 56.33325033 -34.85106204 61.8697068 -34.94921875 67.40625 C-40.55921875 67.40625 -46.16921875 67.40625 -51.94921875 67.40625 C-51.94921875 44.63625 -51.94921875 21.86625 -51.94921875 -1.59375 C-46.99921875 -1.59375 -42.04921875 -1.59375 -36.94921875 -1.59375 C-36.61921875 0.71625 -36.28921875 3.02625 -35.94921875 5.40625 C-35.52511719 5.00792969 -35.10101563 4.60960937 -34.6640625 4.19921875 C-24.65042116 -4.84607046 -12.10675723 -7.13327758 0 0 Z " fill="#080808" transform="translate(344.94921875,55.59375)"/>
<path d="M0 0 C16.77680235 -1.67429782 16.77680235 -1.67429782 21.83203125 2.1328125 C23.85487867 4.99751555 25.44715947 7.85801878 27 11 C28.10043276 12.72426086 29.22346074 14.43444237 30.375 16.125 C30.83648437 16.84945312 31.29796875 17.57390625 31.7734375 18.3203125 C32.9097341 20.14595044 32.9097341 20.14595044 35 21 C35.37511719 19.93265625 35.37511719 19.93265625 35.7578125 18.84375 C37.13020633 15.70191758 38.82927489 13.24821939 40.875 10.5 C41.55304688 9.5821875 42.23109375 8.664375 42.9296875 7.71875 C43.61289062 6.8215625 44.29609375 5.924375 45 5 C45.55429687 4.06800781 46.10859375 3.13601562 46.6796875 2.17578125 C49.74154169 -0.69535138 51.67394074 -0.52163174 55.75 -0.43945312 C56.575 -0.39755859 57.4 -0.35566406 58.25 -0.3125 C59.09046875 -0.28994141 59.9309375 -0.26738281 60.796875 -0.24414062 C62.86534964 -0.18537714 64.93290488 -0.09569885 67 0 C65.71667049 2.71300688 64.30964589 5.07979227 62.49609375 7.46875 C62.0064917 8.11682617 61.51688965 8.76490234 61.01245117 9.43261719 C60.49271729 10.11485352 59.9729834 10.79708984 59.4375 11.5 C58.90680908 12.20543945 58.37611816 12.91087891 57.8293457 13.63769531 C55.31200128 16.98004543 52.77357408 20.30094912 50.171875 23.578125 C49.5387439 24.38733398 49.5387439 24.38733398 48.89282227 25.21289062 C47.7542434 26.66488425 46.60213182 28.10623668 45.44921875 29.546875 C43.7759211 31.80707216 43.7759211 31.80707216 44.24389648 33.9230957 C45.08391196 36.23049372 46.1275502 37.75913878 47.6484375 39.68359375 C48.18823242 40.37952637 48.72802734 41.07545898 49.28417969 41.79248047 C50.13351074 42.88520264 50.13351074 42.88520264 51 44 C53.22883861 47.00595593 55.42644492 50.03434996 57.625 53.0625 C58.18445313 53.82626953 58.74390625 54.59003906 59.3203125 55.37695312 C62.51971569 59.78745115 65.39400446 64.21386673 68 69 C52.07768053 70.51641138 52.07768053 70.51641138 47.52734375 67.1953125 C45.74174098 64.55278925 44.38716039 61.87101292 43 59 C41.54538626 56.81677364 40.06589185 54.64992824 38.5625 52.5 C35 47.25426945 35 47.25426945 35 45 C34.34 45 33.68 45 33 45 C32.62101562 45.82951172 32.62101562 45.82951172 32.234375 46.67578125 C30.23757355 50.43558144 27.61198894 53.71167002 25.0390625 57.09375 C22.95781867 59.86758032 22.95781867 59.86758032 21.7734375 62.71875 C20.42627946 65.61468157 19.61403403 67.12116304 17 69 C11.07473037 70.11098805 4.96400094 69.50637744 -1 69 C0.32168883 65.23979527 1.93262723 62.59810264 4.5 59.5625 C7.92058397 55.39912498 11.12971405 51.13920999 14.25 46.75 C14.66185547 46.17193604 15.07371094 45.59387207 15.49804688 44.99829102 C18.06479608 41.37436978 20.55225987 37.7052947 23 34 C21.59819095 31.00286901 19.95595812 28.42680474 17.98828125 25.76953125 C17.39466797 24.96580078 16.80105469 24.16207031 16.18945312 23.33398438 C15.57005859 22.50189453 14.95066406 21.66980469 14.3125 20.8125 C13.71244141 19.99974609 13.11238281 19.18699219 12.49414062 18.34960938 C8.84804808 13.42679699 5.12069754 8.58729946 1.27416992 3.8190918 C0 2 0 2 0 0 Z " fill="#050505" transform="translate(432,54)"/>
<path d="M0 0 C4.59536786 3.03939243 9.26126428 7.39214171 10.94140625 12.75390625 C11.03550781 13.32109375 11.12960938 13.88828125 11.2265625 14.47265625 C9.45706638 14.97736822 7.68591027 15.4762631 5.9140625 15.97265625 C4.92792969 16.25109375 3.94179688 16.52953125 2.92578125 16.81640625 C0.2265625 17.47265625 0.2265625 17.47265625 -2.7734375 17.47265625 C-3.2065625 16.48265625 -3.6396875 15.49265625 -4.0859375 14.47265625 C-4.997548 12.69948566 -4.997548 12.69948566 -6.7734375 11.47265625 C-11.82707865 10.80880516 -18.10400651 10.13794076 -22.7734375 12.47265625 C-22.90880524 13.90755434 -23.00560893 15.34612732 -23.0859375 16.78515625 C-23.14394531 17.58566406 -23.20195312 18.38617188 -23.26171875 19.2109375 C-22.97841715 21.65701289 -22.97841715 21.65701289 -20.73828125 23.1484375 C-17.24429234 24.70899381 -13.74493094 25.55253637 -10.0234375 26.34765625 C-0.6297287 28.54325565 6.48956614 31.40500512 12.2265625 39.47265625 C14.58412834 44.18778794 13.80886995 50.37186699 13.2265625 55.47265625 C10.63572936 61.4593314 5.63227085 65.10683784 0.2265625 68.47265625 C-4.16203613 69.93552246 -8.42645583 69.65702052 -13.0234375 69.66015625 C-14.41755859 69.67852539 -14.41755859 69.67852539 -15.83984375 69.69726562 C-24.01114642 69.71460219 -30.01277804 68.87265413 -36.1953125 63.19140625 C-39.34746826 59.75836532 -41.7734375 56.25649055 -41.7734375 51.47265625 C-32.29054777 47.54870188 -32.29054777 47.54870188 -27.7734375 48.47265625 C-26.4007693 50.44586678 -25.06916133 52.44808777 -23.7734375 54.47265625 C-19.02955476 56.79188781 -13.90902634 57.49499536 -8.80859375 55.83203125 C-5.54899688 54.54404423 -5.54899688 54.54404423 -2.7734375 52.47265625 C-2.02099249 49.64505735 -2.02099249 49.64505735 -2.7734375 46.47265625 C-6.569441 42.56788474 -11.40723865 41.19648115 -16.5859375 40.03515625 C-24.13790335 38.34098901 -30.93875844 35.37482767 -36.3984375 29.78515625 C-39.84539058 23.98800789 -39.57392051 16.84329349 -38.3828125 10.33984375 C-36.29314227 4.36553015 -30.88570692 1.01562569 -25.46484375 -1.671875 C-17.59115467 -4.1745425 -7.46275357 -3.48178636 0 0 Z " fill="#060606" transform="translate(48.7734375,54.52734375)"/>
<path d="M0 0 C5.28 0 10.56 0 16 0 C16 6.6 16 13.2 16 20 C21.61 20 27.22 20 33 20 C33 24.29 33 28.58 33 33 C27.39 33 21.78 33 16 33 C16.07409997 38.03624266 16.15701416 43.07074118 16.26245117 48.10620117 C16.29564169 49.81802238 16.32369189 51.52995148 16.34643555 53.24194336 C16.38009032 55.70733479 16.43240974 58.17174281 16.48828125 60.63671875 C16.49467117 61.39836838 16.5010611 62.16001801 16.50764465 62.94474792 C16.63072898 67.42415956 17.12895527 70.48869882 20 74 C23.16579014 75.03527642 23.16579014 75.03527642 26.6875 75.3125 C27.86699219 75.45300781 29.04648437 75.59351562 30.26171875 75.73828125 C31.61716797 75.86783203 31.61716797 75.86783203 33 76 C33.02685938 78.14576637 33.04633088 80.29162645 33.0625 82.4375 C33.07410156 83.63246094 33.08570313 84.82742187 33.09765625 86.05859375 C33 89 33 89 32 90 C13.3760563 91.35658279 13.3760563 91.35658279 7.4765625 86.62890625 C2.67929517 81.33668277 -0.13634091 76.08372796 -0.11352539 68.87402344 C-0.11344986 68.07349548 -0.11337433 67.27296753 -0.11329651 66.44818115 C-0.10813522 65.59387512 -0.10297394 64.73956909 -0.09765625 63.859375 C-0.0962413 62.97719299 -0.09482635 62.09501099 -0.09336853 61.18609619 C-0.08778001 58.37402935 -0.07522961 55.5620427 -0.0625 52.75 C-0.05748352 50.84114698 -0.05292087 48.93229272 -0.04882812 47.0234375 C-0.03781434 42.34892753 -0.02055758 37.67447735 0 33 C-3.96 33 -7.92 33 -12 33 C-12 28.71 -12 24.42 -12 20 C-8.04 20 -4.08 20 0 20 C0 13.4 0 6.8 0 0 Z " fill="#040404" transform="translate(515,34)"/>
<path d="M0 0 C5.28 0 10.56 0 16 0 C16 6.6 16 13.2 16 20 C21.61 20 27.22 20 33 20 C33 24.29 33 28.58 33 33 C27.39 33 21.78 33 16 33 C16.07409997 38.03624266 16.15701416 43.07074118 16.26245117 48.10620117 C16.29564169 49.81802238 16.32369189 51.52995148 16.34643555 53.24194336 C16.38009032 55.70733479 16.43240974 58.17174281 16.48828125 60.63671875 C16.49467117 61.39836838 16.5010611 62.16001801 16.50764465 62.94474792 C16.6312449 67.44293556 17.20720447 70.42393767 20 74 C22.56893838 75.28446919 24.76576337 75.32977144 27.625 75.5625 C29.39875 75.706875 31.1725 75.85125 33 76 C33 80.29 33 84.58 33 89 C16.20255007 91.79957499 16.20255007 91.79957499 8.75390625 87.4765625 C4.56420726 83.94937716 1.717343 79.152029 0 74 C-0.08567246 72.63407817 -0.11773647 71.26435142 -0.11352539 69.89575195 C-0.11344986 69.07512772 -0.11337433 68.25450348 -0.11329651 67.40901184 C-0.10813522 66.52767075 -0.10297394 65.64632965 -0.09765625 64.73828125 C-0.0962413 63.83248825 -0.09482635 62.92669525 -0.09336853 61.99345398 C-0.08777001 59.09976909 -0.07521781 56.20616151 -0.0625 53.3125 C-0.05748481 51.35091258 -0.05292193 49.38932394 -0.04882812 47.42773438 C-0.03780107 42.61845979 -0.02053747 37.809243 0 33 C-3.63 33 -7.26 33 -11 33 C-11 28.71 -11 24.42 -11 20 C-7.37 20 -3.74 20 0 20 C0 13.4 0 6.8 0 0 Z " fill="#050505" transform="translate(76,34)"/>
<path d="M0 0 C5.28 0 10.56 0 16 0 C16 33.66 16 67.32 16 102 C10.72 102 5.44 102 0 102 C0 68.34 0 34.68 0 0 Z " fill="#000000" transform="translate(191,21)"/>
<path d="M0 0 C0.74701172 -0.03287109 1.49402344 -0.06574219 2.26367188 -0.09960938 C6.34264471 -0.13900244 8.89763121 0.18442843 12.11328125 2.80859375 C16.41337383 7.20003883 17.6875 9.16564301 17.6875 15.4375 C5.8075 15.4375 -6.0725 15.4375 -18.3125 15.4375 C-15.29856232 4.88871813 -11.34485215 0.08674908 0 0 Z " fill="#F6F6F6" transform="translate(398.3125,65.5625)"/>
<path d="M0 0 C0.71309326 0.01023193 1.42618652 0.02046387 2.16088867 0.03100586 C6.02054647 0.18759237 9.16887409 0.50215049 12.4375 2.625 C16.07145514 6.59699748 18.125 10.01629894 18.125 15.5625 C6.245 15.5625 -5.635 15.5625 -17.875 15.5625 C-16.71893818 9.7821909 -14.8707297 6.5582297 -10.7265625 2.4140625 C-7.13815722 0.08405688 -4.15003749 -0.08827814 0 0 Z " fill="#F8F8F8" transform="translate(249.875,65.4375)"/>
</svg>
