<?xml version="1.0" encoding="UTF-8"?>
<svg version="1.1" xmlns="http://www.w3.org/2000/svg" width="1004" height="270">
<path d="M0 0 C331.32 0 662.64 0 1004 0 C1004 89.1 1004 178.2 1004 270 C672.68 270 341.36 270 0 270 C0 180.9 0 91.8 0 0 Z " fill="#000304" transform="translate(0,0)"/>
<path d="M0 0 C1.27280004 0.94934052 2.52302668 1.92962906 3.75 2.9375 C4.55953125 3.53433594 5.3690625 4.13117188 6.203125 4.74609375 C16.078721 13.24334737 20.75150352 25.94201056 24.75 37.9375 C24.75 45.5275 24.75 53.1175 24.75 60.9375 C-3.3 60.9375 -31.35 60.9375 -60.25 60.9375 C-57.5570009 73.71734372 -57.5570009 73.71734372 -52.25 84.9375 C-51.71375 86.030625 -51.1775 87.12375 -50.625 88.25 C-46.34325807 93.09512903 -41.38109009 95.48012007 -34.91259766 96.19628906 C-32.29128694 96.35594752 -29.68855646 96.42255731 -27.0625 96.4375 C-26.21945312 96.44378418 -25.37640625 96.45006836 -24.5078125 96.45654297 C-15.97671677 96.28411305 -9.48778522 94.03351737 -3.25 87.9375 C-2.63125 86.844375 -2.0125 85.75125 -1.375 84.625 C0.75 81.9375 0.75 81.9375 4.25 81.4375 C5.75449645 81.55694962 7.25494644 81.73112021 8.75 81.9375 C9.79027344 82.06898438 10.83054687 82.20046875 11.90234375 82.3359375 C17.96317009 83.21515369 17.96317009 83.21515369 20.75 83.9375 C21.75 85.9375 21.75 85.9375 21.0703125 88.40625 C15.76444537 101.86165162 6.94740206 110.2299322 -6.1015625 116.25390625 C-21.54195287 121.97921896 -39.33796263 120.19798362 -54.16015625 113.65234375 C-68.47335545 106.42528537 -77.83782571 96.23729752 -83.625 81.25 C-84.19617291 79.48846232 -84.73984638 77.71766762 -85.25 75.9375 C-85.47429687 75.17566406 -85.69859375 74.41382813 -85.9296875 73.62890625 C-90.2204277 56.20144777 -87.12178461 36.59163996 -78.6484375 20.98828125 C-76.95266397 18.21232321 -75.1620889 15.56863073 -73.25 12.9375 C-72.39148438 11.74833984 -72.39148438 11.74833984 -71.515625 10.53515625 C-54.88276525 -10.25591843 -22.03950807 -14.3640575 0 0 Z " fill="#F9F9F9" transform="translate(490.25,80.0625)"/>
<path d="M0 0 C9.22958553 7.55147907 16.39533218 17.99626558 19.83984375 29.42578125 C20.13632812 30.38613281 20.4328125 31.34648438 20.73828125 32.3359375 C23.32335515 41.90545418 22.83984375 48.88587622 22.83984375 59.42578125 C-5.21015625 59.42578125 -33.26015625 59.42578125 -62.16015625 59.42578125 C-59.19536228 75.86062807 -59.19536228 75.86062807 -50.16015625 89.42578125 C-43.05818936 93.66963951 -37.14147864 94.65429747 -28.97265625 94.73828125 C-28.05162109 94.76728516 -27.13058594 94.79628906 -26.18164062 94.82617188 C-20.01236005 94.88309214 -15.2113376 94.14884704 -10.16015625 90.42578125 C-7.94147751 87.86852929 -7.94147751 87.86852929 -6.16015625 85.11328125 C-2.45270549 80.69161055 -2.45270549 80.69161055 0.73681641 80.03564453 C6.82535271 79.72716627 13.54561975 80.21386129 18.83984375 83.42578125 C18.3511312 92.7113197 11.71545505 100.33270255 5.24609375 106.45703125 C1.39579421 109.60727633 -2.54662086 111.6123685 -7.16015625 113.42578125 C-8.59101562 114.01359375 -8.59101562 114.01359375 -10.05078125 114.61328125 C-24.61519759 119.88281882 -41.05118189 118.85571184 -55.03515625 112.48828125 C-69.9870604 104.94431984 -80.56947778 91.79466534 -85.97192383 76.06176758 C-88.25234403 68.50060251 -88.64473433 61.41710099 -88.59765625 53.55078125 C-88.61763672 52.37386719 -88.63761719 51.19695312 -88.65820312 49.984375 C-88.64885832 32.99552678 -82.08564509 18.91649922 -70.47265625 6.67578125 C-51.57778823 -11.70841466 -22.0717711 -16.08485308 0 0 Z " fill="#F9F9F9" transform="translate(749.16015625,81.57421875)"/>
<path d="M0 0 C8.91 0 17.82 0 27 0 C29.4336064 6.08401599 31.78612287 12.06321321 33.84082031 18.26367188 C34.09499725 19.02269806 34.34917419 19.78172424 34.61105347 20.56375122 C35.43639745 23.0310983 36.25742782 25.49985379 37.078125 27.96875 C37.65515944 29.69850404 38.2323719 31.4281987 38.80975342 33.15783691 C40.0118366 36.76115421 41.21177061 40.36517792 42.41015625 43.96972656 C43.94838956 48.5958921 45.49206184 53.22022162 47.03731155 57.84404755 C48.22673703 61.40511532 49.41331661 64.96712621 50.59902191 68.5294342 C51.16750706 70.23622519 51.73688604 71.94271874 52.30716705 73.64891052 C53.09993185 76.0221484 53.88886234 78.39662625 54.67675781 80.77148438 C54.91359283 81.47794098 55.15042786 82.18439758 55.3944397 82.91226196 C57 87.77145617 57 87.77145617 57 90 C57.66 90 58.32 90 59 90 C59.11625732 88.99332275 59.23251465 87.98664551 59.35229492 86.94946289 C59.91178025 83.05590175 61.04878215 79.52114891 62.36328125 75.80859375 C62.5965361 75.14142838 62.82979095 74.474263 63.07011414 73.78688049 C63.81152649 71.66823521 64.56125064 69.55267515 65.3125 67.4375 C68.49691405 58.43825147 71.53333064 49.46578605 74.09057617 40.26245117 C75.47533722 35.29478357 76.98845901 30.36777846 78.5 25.4375 C78.80115723 24.45313965 79.10231445 23.4687793 79.41259766 22.45458984 C80.00542928 20.5172837 80.59867279 18.58010353 81.19238281 16.64306641 C81.90230299 14.3197303 82.60564385 11.99459494 83.3046875 9.66796875 C83.65789062 8.49878906 84.01109375 7.32960938 84.375 6.125 C84.67148437 5.13757813 84.96796875 4.15015625 85.2734375 3.1328125 C86 1 86 1 87 0 C89.07262076 -0.08767112 91.14820294 -0.10695873 93.22265625 -0.09765625 C94.48271484 -0.09443359 95.74277344 -0.09121094 97.04101562 -0.08789062 C98.38151109 -0.07953403 99.72200588 -0.07106907 101.0625 -0.0625 C102.40689942 -0.0574866 103.7513006 -0.05292342 105.09570312 -0.04882812 C108.39717941 -0.03699488 111.69856803 -0.02050971 115 0 C112.94135598 7.10839514 110.62625955 14.0940736 108.1484375 21.06640625 C107.77712204 22.11790863 107.40580658 23.16941101 107.02323914 24.2527771 C105.80919634 27.69007514 104.5921191 31.12629018 103.375 34.5625 C101.65060072 39.43948964 99.92821666 44.31718774 98.20703125 49.1953125 C97.77085983 50.43129684 97.33468842 51.66728119 96.88529968 52.9407196 C94.02014852 61.07190402 91.18932134 69.21424547 88.38671875 77.3671875 C75.72915735 114.17962591 75.72915735 114.17962591 69.3125 130.8125 C68.85560791 132.00286865 68.39871582 133.1932373 67.92797852 134.41967773 C58.36319893 158.79077165 58.36319893 158.79077165 49.3125 164.125 C48.13107422 164.84042969 48.13107422 164.84042969 46.92578125 165.5703125 C39.49497822 169.20138581 33.06180531 170.44983177 24.8125 170.25 C23.94947266 170.24484375 23.08644531 170.2396875 22.19726562 170.234375 C17.60032721 170.17810031 13.59912115 169.76652019 9 169 C9 162.07 9 155.14 9 148 C11.619375 147.9175 14.23875 147.835 16.9375 147.75 C24.91150965 147.35622175 31.44829436 146.4582397 37.375 140.6875 C42.55574884 132.11933845 43.88716239 123.82201408 42 114 C39.54642897 105.70074142 36.11264234 97.72498685 32.78709412 89.74479675 C29.43228007 81.68890368 26.28738701 73.55355243 23.13476562 65.41690063 C21.45241322 61.07775543 19.7618876 56.74180667 18.0703125 52.40625 C17.73549866 51.5476387 17.40068481 50.6890274 17.0557251 49.80439758 C15.01687421 44.58269843 12.95960871 39.36866666 10.88742065 34.16011047 C9.56586958 30.83579541 8.25173042 27.50857583 6.93841553 24.18099976 C6.31863636 22.61671744 5.69520882 21.05387514 5.06793213 19.49258423 C4.20271768 17.33843349 3.35009265 15.17968524 2.5 13.01953125 C2.0153125 11.80370361 1.530625 10.58787598 1.03125 9.33520508 C0 6 0 6 0 0 Z " fill="#FAFAFA" transform="translate(227,74)"/>
<path d="M0 0 C2.29296875 2.890625 2.29296875 2.890625 4.1875 6.25 C4.82042969 7.32765625 5.45335937 8.4053125 6.10546875 9.515625 C12.23546356 22.66495789 12.55690716 36.18244634 12.390625 50.375 C12.38314307 52.28026732 12.3774594 54.18554247 12.37347412 56.09082031 C12.35837115 61.04909388 12.31922616 66.00688128 12.2746582 70.96496582 C12.23337 76.04688953 12.21539225 81.12889358 12.1953125 86.2109375 C12.15271316 96.14087043 12.08249352 106.0703183 12 116 C4.08 116 -3.84 116 -12 116 C-12.03440186 113.64987793 -12.06880371 111.29975586 -12.10424805 108.87841797 C-12.22215199 101.06292069 -12.36642249 93.24806441 -12.523242 85.43325615 C-12.61741341 80.70088735 -12.70304173 75.96870251 -12.76831055 71.23583984 C-12.83177526 66.65761364 -12.91877153 62.08035505 -13.02124977 57.50284195 C-13.05612831 55.76733993 -13.08290755 54.03165323 -13.10095787 52.29589462 C-13.08187781 35.05520651 -13.08187781 35.05520651 -20.75590515 20.23214722 C-26.4415912 16.48874167 -34.54223343 17.38391422 -41 18 C-44.1884708 18.66948254 -47.022684 19.69220699 -50 21 C-51.17369141 21.46986328 -51.17369141 21.46986328 -52.37109375 21.94921875 C-59.88120373 25.0114901 -59.88120373 25.0114901 -65 31 C-65.12248216 33.68425987 -65.18569822 36.34427785 -65.20532227 39.02978516 C-65.22017166 40.27380348 -65.22017166 40.27380348 -65.23532104 41.54295349 C-65.26697664 44.29162719 -65.29170949 47.04031818 -65.31640625 49.7890625 C-65.33697227 51.69192969 -65.35796865 53.59479227 -65.37937927 55.49765015 C-65.43463627 60.51176225 -65.48402953 65.52591582 -65.53222656 70.5401001 C-65.58241512 75.65437522 -65.63811498 80.76858994 -65.69335938 85.8828125 C-65.80098533 95.92182537 -65.9019113 105.96088941 -66 116 C-74.25 116 -82.5 116 -91 116 C-91 75.74 -91 35.48 -91 -6 C-82.75 -6 -74.5 -6 -66 -6 C-65.34 -2.7 -64.68 0.6 -64 4 C-63.39414062 3.54109375 -62.78828125 3.0821875 -62.1640625 2.609375 C-44.7676997 -10.1301153 -18.3231259 -13.57063436 0 0 Z " fill="#F8F8F8" transform="translate(628,80)"/>
<path d="M0 0 C1.10794922 -0.01611328 2.21589844 -0.03222656 3.35742188 -0.04882812 C16.02939217 -0.0562343 27.81694153 2.36364253 37.34765625 11.19921875 C44.5135076 18.94320672 46.92676588 25.82053189 47.3125 36.3125 C44.79230028 36.65135038 42.27151484 36.98370335 39.75 37.3125 C39.04552734 37.40789062 38.34105469 37.50328125 37.61523438 37.6015625 C33.13882145 38.17916417 28.82588762 38.40739383 24.3125 38.3125 C24.044375 37.64863281 23.77625 36.98476562 23.5 36.30078125 C20.61556251 29.80130862 17.84194715 26.24938523 11.3125 23.3125 C5.19045862 21.27181954 -3.3451736 20.92712993 -9.3828125 23.4296875 C-11.48544079 24.75628038 -11.48544079 24.75628038 -13.26953125 26.21875 C-14.6875 27.3125 -14.6875 27.3125 -16.6875 27.3125 C-17.2842998 31.78186741 -17.50032952 35.86053178 -16.6875 40.3125 C-11.36807477 46.92032318 0.14083007 48.57711765 8.04394531 50.69921875 C40.51033231 59.47618433 40.51033231 59.47618433 48.26953125 72.1875 C52.2506977 80.29894026 52.69090998 89.46208947 50.625 98.23046875 C46.79993815 108.51032248 39.63744705 116.82908074 29.67578125 121.56640625 C26.91288299 122.6345167 24.16519249 123.51630673 21.3125 124.3125 C20.10400391 124.65087891 20.10400391 124.65087891 18.87109375 124.99609375 C2.58522304 128.69163562 -18.67392722 127.85441956 -33.6875 120.3125 C-41.81244083 114.72920733 -47.80214927 107.09836806 -49.6875 97.3125 C-49.91003968 93.29711003 -49.87097657 89.32859816 -49.6875 85.3125 C-41.55205314 85.02704572 -33.71100304 86.12853117 -25.6875 87.3125 C-25.45675781 87.97636719 -25.22601563 88.64023438 -24.98828125 89.32421875 C-23.01827095 94.6580411 -21.38489159 98.81676672 -16.6875 102.3125 C-10.44304333 104.65834535 -4.3703769 104.71342333 2.25 104.75 C3.81911133 104.79930664 3.81911133 104.79930664 5.41992188 104.84960938 C12.20712034 104.89653532 17.20027776 104.03140917 22.3125 99.3125 C24.5247081 95.07243447 24.90373387 91.04237092 24.3125 86.3125 C21.07068378 80.07823804 15.99494175 78.65343509 9.53515625 76.52734375 C4.795874 75.11590884 -0.00625054 73.97025247 -4.8125 72.8125 C-18.99663124 69.39319437 -32.06005651 64.78332174 -40.6875 52.3125 C-44.85871717 44.80430909 -44.76636358 35.70113029 -43.6875 27.3125 C-42.58070794 23.48053994 -41.0058871 20.54168204 -38.6875 17.3125 C-38.2028125 16.60867187 -37.718125 15.90484375 -37.21875 15.1796875 C-27.72880589 2.94510269 -14.59771633 -0.04173161 0 0 Z " fill="#F8F8F8" transform="translate(81.6875,72.6875)"/>
<path d="M0 0 C6.24725168 4.95598903 9.56643852 11.63460458 12.91210938 18.67626953 C16.44017781 26.09251989 20.67287673 33.02852362 25 40 C34.45861971 36.04531848 40.14686746 21.21682965 45.1328125 12.8046875 C45.62789307 12.00192383 46.12297363 11.19916016 46.63305664 10.37207031 C48.04300811 8.05273142 48.04300811 8.05273142 48.95874023 5.62011719 C50.06945497 3.1265971 50.85967379 1.71374177 53 0 C57.94790465 -0.98942548 62.80256499 -0.75357675 67.8125 -0.5 C69.18674586 -0.45984294 70.56110386 -0.42334594 71.93554688 -0.390625 C75.29321475 -0.29637467 78.64518101 -0.16490272 82 0 C79.39063927 5.36671898 76.808213 10.62331205 73.4375 15.5625 C72.41076172 17.06876953 72.41076172 17.06876953 71.36328125 18.60546875 C70.57716045 19.73811891 69.78927826 20.86954782 69 22 C68.5467334 22.6492041 68.0934668 23.2984082 67.62646484 23.96728516 C64.10726728 28.99454193 60.55832396 34.00038791 57 39 C56.51611816 39.68046387 56.03223633 40.36092773 55.53369141 41.06201172 C54.16943717 42.97965887 52.80394438 44.89641295 51.4375 46.8125 C51.03225098 47.38081543 50.62700195 47.94913086 50.20947266 48.53466797 C48.60431647 50.77997979 47.05769987 52.93886999 45.16015625 54.94921875 C43.73873833 57.07999333 43.73873833 57.07999333 43.94921875 60.2578125 C45.30481289 65.0855418 47.66151177 68.04809426 50.8125 71.875 C52.00922809 73.38196038 53.20317167 74.89113561 54.39453125 76.40234375 C55.30259521 77.54872314 55.30259521 77.54872314 56.22900391 78.71826172 C58.93842157 82.20905542 61.47567056 85.81163728 64 89.4375 C67.14036179 93.94033288 70.29664056 98.42633205 73.53515625 102.859375 C74.12361328 103.66576416 74.71207031 104.47215332 75.31835938 105.30297852 C76.45018691 106.85036927 77.58540855 108.3952853 78.72460938 109.93725586 C81.56133615 113.82177861 83.99701684 117.59898164 86 122 C65.34779357 126.23635004 65.34779357 126.23635004 56.5625 122.5625 C51.25197731 117.25197731 47.29721432 111.75483023 43.875 105.0625 C40.32905885 98.18255901 35.90230541 92.10264007 31.26708984 85.91625977 C30.71617676 85.17690186 30.16526367 84.43754395 29.59765625 83.67578125 C29.09758057 83.01489502 28.59750488 82.35400879 28.08227539 81.6730957 C27 80 27 80 27 78 C26.34 78 25.68 78 25 78 C24.75121094 78.69867188 24.50242187 79.39734375 24.24609375 80.1171875 C22.82751274 83.39904577 21.04540277 86.14885299 19.0625 89.125 C14.71292173 95.71456162 10.77731038 102.50297676 6.98266602 109.42626953 C3.75235231 115.16998816 0.46845054 120.04127955 -5.4140625 123.36328125 C-8.79646413 124.19610824 -11.89344614 124.22634086 -15.375 124.1875 C-16.64085937 124.18105469 -17.90671875 124.17460937 -19.2109375 124.16796875 C-22.89623047 124.00460009 -26.36437083 123.58714941 -30 123 C-30.33 122.01 -30.66 121.02 -31 120 C-29.71868799 117.52014015 -28.39259166 115.26808719 -26.875 112.9375 C-26.42415039 112.23214111 -25.97330078 111.52678223 -25.50878906 110.80004883 C-20.00394343 102.2970617 -14.01266778 94.14721475 -8 86 C-6.72106893 84.25932412 -5.44242922 82.51843414 -4.1640625 80.77734375 C5.67380572 67.3924805 5.67380572 67.3924805 7.68798828 64.96899414 C9.3286571 62.91984217 9.3286571 62.91984217 8.890625 59.58203125 C7.97947562 55.91745238 6.91257646 53.75417881 4.75 50.6875 C4.02683594 49.65238281 3.30367187 48.61726563 2.55859375 47.55078125 C1.70707398 46.36621963 0.85411427 45.18269225 0 44 C-0.98830965 42.6185099 -1.97658935 41.23699837 -2.96484375 39.85546875 C-5.71393632 36.02636043 -8.48172877 32.21111982 -11.25488281 28.39941406 C-14.19704002 24.35415371 -17.13037296 20.30253331 -20.0625 16.25 C-20.59834717 15.51185059 -21.13419434 14.77370117 -21.6862793 14.01318359 C-30 2.52748714 -30 2.52748714 -30 0 C-20.98149009 -2.23467502 -8.64534607 -4.55878543 0 0 Z " fill="#F8F9F9" transform="translate(812,74)"/>
<path d="M0 0 C8.25 0 16.5 0 25 0 C25 10.56 25 21.12 25 32 C34.24 32 43.48 32 53 32 C53 39.26 53 46.52 53 54 C44.09 54 35.18 54 26 54 C26.06314887 62.69361034 26.13875323 71.38687513 26.23571491 80.0801754 C26.28026218 84.11771995 26.31955172 88.15516723 26.34643555 92.19287109 C26.37262599 96.09640214 26.41313666 99.99955567 26.46318626 103.9028511 C26.4797494 105.38497818 26.4913289 106.86717039 26.49761391 108.34937668 C26.22233455 120.60566479 26.22233455 120.60566479 30 132 C32.93617416 133.11187697 35.8618543 133.18312793 38.984375 133.31640625 C39.91894531 133.35830078 40.85351562 133.40019531 41.81640625 133.44335938 C42.78449219 133.48267578 43.75257813 133.52199219 44.75 133.5625 C46.22533203 133.62727539 46.22533203 133.62727539 47.73046875 133.69335938 C50.15348927 133.79921949 52.57672672 133.90009312 55 134 C55 140.6 55 147.2 55 154 C40.4572885 158.8475705 25.16710742 158.45288409 10.875 152.75390625 C7.40382342 150.63629988 6.44150654 148.91183285 4.75 145.25 C4.03070312 143.74179687 4.03070312 143.74179687 3.296875 142.203125 C0.81148459 136.06451014 -0.2936161 130.5588587 -0.22705078 123.95336914 C-0.22734283 123.18181488 -0.22763489 122.41026062 -0.22793579 121.61532593 C-0.22655271 119.08848459 -0.21104018 116.56194549 -0.1953125 114.03515625 C-0.19157873 112.27396302 -0.18873348 110.51276771 -0.18673706 108.75157166 C-0.17912927 104.13363838 -0.15950549 99.51583245 -0.1373291 94.89794922 C-0.11680898 90.17872846 -0.10772219 85.45948696 -0.09765625 80.74023438 C-0.07625672 71.49342485 -0.04109804 62.24674298 0 53 C-5.28 53 -10.56 53 -16 53 C-16 46.07 -16 39.14 -16 32 C-10.72 32 -5.44 32 0 32 C0 21.44 0 10.88 0 0 Z " fill="#F5F4F5" transform="translate(920,42)"/>
<path d="M0 0 C7.92 0 15.84 0 24 0 C24 10.56 24 21.12 24 32 C33.24 32 42.48 32 52 32 C52 38.6 52 45.2 52 52 C42.76 52 33.52 52 24 52 C24.00469399 59.63712442 24.01566217 67.27059281 24.08029175 74.90686035 C24.10880999 78.46477441 24.12748286 82.02204206 24.12011719 85.58007812 C24.09437664 101.64402997 24.63696735 116.00263503 31 131 C31 131.66 31 132.32 31 133 C38.92 133.33 46.84 133.66 55 134 C55 140.6 55 147.2 55 154 C40.8633009 157.94512533 24.58992852 159.91245644 11 153 C4.72872975 148.29100732 1.75526502 141.47777914 0 134 C-0.68410225 127.69286906 -0.46743902 121.3213145 -0.390625 114.98828125 C-0.38315078 113.16554896 -0.37746344 111.34280856 -0.37347412 109.52006531 C-0.35831068 104.7573469 -0.31911069 99.99512805 -0.2746582 95.23260498 C-0.23350337 90.35891474 -0.21542022 85.4851426 -0.1953125 80.61132812 C-0.15260586 71.07396563 -0.08233379 61.5371028 0 52 C-5.94 52 -11.88 52 -18 52 C-18 45.4 -18 38.8 -18 32 C-12.06 32 -6.12 32 0 32 C0 21.44 0 10.88 0 0 Z " fill="#F9F9F9" transform="translate(160,42)"/>
<path d="M0 0 C8.58 0 17.16 0 26 0 C26 57.42 26 114.84 26 174 C17.42 174 8.84 174 0 174 C0 116.58 0 59.16 0 0 Z " fill="#FCFCFC" transform="translate(356,22)"/>
<path d="M0 0 C7.34613841 -0.4175425 14.39475707 1.48578507 20.16015625 6.1328125 C27.2943784 13.53224737 29.82421875 21.08516152 29.82421875 31.25 C10.02421875 31.25 -9.77578125 31.25 -30.17578125 31.25 C-28.98825437 19.37473118 -28.98825437 19.37473118 -25.17578125 13.25 C-24.63953125 12.38375 -24.10328125 11.5175 -23.55078125 10.625 C-16.86648963 3.94070838 -9.19521016 1.0565412 0 0 Z " fill="#040708" transform="translate(460.17578125,91.75)"/>
<path d="M0 0 C0.7727124 -0.0103125 1.5454248 -0.020625 2.34155273 -0.03125 C9.39967683 0.07835529 14.72112449 2.47340888 19.8125 7.4375 C24.7781859 14.53313746 28.8125 21.63776214 28.8125 30.4375 C9.0125 30.4375 -10.7875 30.4375 -31.1875 30.4375 C-29.36738003 14.05642023 -29.36738003 14.05642023 -23.0625 8.125 C-15.46324733 2.05286987 -9.66984238 0.10883553 0 0 Z " fill="#040406" transform="translate(718.1875,92.5625)"/>
</svg>
